<svg width="433" height="382" xmlns="http://www.w3.org/2000/svg" xmlns:xlink="http://www.w3.org/1999/xlink" overflow="hidden"><defs><clipPath id="clip0"><path d="M359 93 792 93 792 475 359 475Z" fill-rule="evenodd" clip-rule="evenodd"/></clipPath></defs><g clip-path="url(#clip0)" transform="translate(-359 -93)"><path d="M0.333333-9.41578e-08 0.333436 365.003-0.33323 365.003-0.333333 9.41578e-08ZM4.0001 363.67 0.000104987 371.67-3.9999 363.67Z" transform="matrix(1 0 0 -1 545.5 474.17)"/><path d="M0.310052-0.122388 1.28916 2.35803 0.669056 2.6028-0.310052 0.122388ZM2.02349 4.21834 3.0026 6.69875 2.38249 6.94353 1.40339 4.46312ZM3.73693 8.55906 4.71603 11.0395 4.09593 11.2843 3.11682 8.80384ZM5.45037 12.8998 6.42947 15.3802 5.80937 15.625 4.83026 13.1446ZM7.1638 17.2405 8.14291 19.7209 7.52281 19.9657 6.5437 17.4853ZM8.87724 21.5812 9.85635 24.0617 9.23625 24.3064 8.25714 21.826ZM10.5907 25.922 11.5698 28.4024 10.9497 28.6472 9.97058 26.1667ZM12.3041 30.2627 13.2832 32.7431 12.6631 32.9879 11.684 30.5075ZM14.0176 34.6034 14.9967 37.0838 14.3766 37.3286 13.3975 34.8482ZM15.731 38.9442 16.7101 41.4246 16.09 41.6693 15.1109 39.1889ZM17.4444 43.2849 18.4235 45.7653 17.8034 46.0101 16.8243 43.5297ZM19.1579 47.6256 20.137 50.106 19.5169 50.3508 18.5378 47.8704ZM20.8713 51.9663 21.8504 54.4467 21.2303 54.6915 20.2512 52.2111ZM22.5847 56.3071 23.5639 58.7875 22.9437 59.0322 21.9646 56.5518ZM27.2052 58.0259 26.4219 66.9359 19.764 60.9633Z" transform="matrix(1 0 0 -1 545.5 288.436)"/><path d="M0.333333-9.41578e-08 0.333436 365.003-0.33323 365.003-0.333333 9.41578e-08ZM4.0001 363.67 0.000104987 371.67-3.9999 363.67Z" transform="matrix(-4.37114e-08 1 1 4.37114e-08 359.5 288.5)"/><path d="M0.171667-0.28573 2.45751 1.08761 2.11417 1.65907-0.171667 0.28573ZM4.17189 2.11761 6.45772 3.49094 6.11439 4.0624 3.82855 2.68907ZM8.1721 4.52094 10.4579 5.89428 10.1146 6.46574 7.82877 5.0924ZM12.1723 6.92428 14.4582 8.29762 14.1148 8.86908 11.829 7.49574ZM16.1725 9.32762 18.4584 10.701 18.115 11.2724 15.8292 9.89908ZM20.1728 11.731 22.4586 13.1043 22.1153 13.6758 19.8294 12.3024ZM24.173 14.1343 26.4588 15.5076 26.1155 16.0791 23.8296 14.7058ZM28.1732 16.5376 30.459 17.911 30.1157 18.4824 27.8299 17.1091ZM32.1734 18.941 34.4593 20.3143 34.1159 20.8858 31.8301 19.5124ZM36.1736 21.3443 38.4595 22.7176 38.1161 23.2891 35.8303 21.9158ZM40.1739 23.7476 42.4597 25.121 42.1164 25.6924 39.8305 24.3191ZM44.1741 26.151 46.4599 27.5243 46.1166 28.0958 43.8307 26.7224ZM48.1743 28.5543 50.4601 29.9277 50.1168 30.4991 47.831 29.1258ZM52.1745 30.9577 54.4604 32.331 54.117 32.9025 51.8312 31.5291ZM56.1747 33.361 58.4606 34.7343 58.1172 35.3058 55.8314 33.9325ZM60.1749 35.7643 62.4608 37.1377 62.1175 37.7091 59.8316 36.3358ZM64.1752 38.1677 66.461 39.541 66.1177 40.1125 63.8318 38.7391ZM68.1754 40.571 70.4612 41.9443 70.1179 42.5158 67.832 41.1425ZM72.1756 42.9743 74.4614 44.3477 74.1181 44.9191 71.8323 43.5458ZM76.1758 45.3777 78.4617 46.751 78.1183 47.3225 75.8325 45.9491ZM80.176 47.781 82.4619 49.1544 82.1185 49.7258 79.8327 48.3525ZM84.1762 50.1844 86.4621 51.5577 86.1188 52.1292 83.8329 50.7558ZM88.1765 52.5877 90.4623 53.961 90.119 54.5325 87.8331 53.1592ZM92.1767 54.991 94.4625 56.3644 94.1192 56.9358 91.8333 55.5625ZM96.1769 57.3944 98.4627 58.7677 98.1194 59.3392 95.8336 57.9658ZM100.177 59.7977 102.463 61.171 102.12 61.7425 99.8338 60.3692ZM104.177 62.201 106.463 63.5744 106.12 64.1458 103.834 62.7725ZM108.178 64.6044 110.463 65.9777 110.12 66.5492 107.834 65.1758ZM112.178 67.0077 114.464 68.381 114.12 68.9525 111.834 67.5792ZM116.178 69.411 118.464 70.7844 118.12 71.3558 115.835 69.9825ZM120.178 71.8144 122.464 73.1877 122.121 73.7592 119.835 72.3858ZM124.178 74.2177 126.464 75.591 126.121 76.1625 123.835 74.7892ZM128.179 76.621 130.464 77.9944 130.121 78.5658 127.835 77.1925ZM132.179 79.0244 134.465 80.3977 134.121 80.9692 131.836 79.5958ZM136.179 81.4277 138.465 82.801 138.122 83.3725 135.836 81.9992ZM140.179 83.831 142.465 85.2044 142.122 85.7758 139.836 84.4025ZM144.18 86.2344 146.465 87.6077 146.122 88.1792 143.836 86.8058ZM148.18 88.6377 150.466 90.0111 150.122 90.5825 147.836 89.2092ZM152.18 91.0411 154.466 92.4144 154.122 92.9858 151.837 91.6125ZM156.18 93.4444 158.466 94.8177 158.123 95.3892 155.837 94.0158ZM160.18 95.8477 162.466 97.2211 162.123 97.7925 159.837 96.4192ZM164.181 98.2511 166.467 99.6244 166.123 100.196 163.837 98.8225ZM168.181 100.654 170.467 102.028 170.123 102.599 167.838 101.226ZM172.181 103.058 174.467 104.431 174.124 105.003 171.838 103.629ZM176.181 105.461 178.467 106.834 178.124 107.406 175.838 106.033ZM180.182 107.864 182.467 109.238 182.124 109.809 179.838 108.436ZM184.182 110.268 186.468 111.641 186.124 112.213 183.838 110.839ZM188.182 112.671 190.468 114.044 190.124 114.616 187.839 113.243ZM192.182 115.074 194.468 116.448 194.125 117.019 191.839 115.646ZM196.182 117.478 198.468 118.851 198.125 119.423 195.839 118.049ZM200.183 119.881 202.468 121.254 202.125 121.826 199.839 120.453ZM204.183 122.284 206.469 123.658 206.125 124.229 203.839 122.856ZM208.183 124.688 210.469 126.061 210.126 126.633 207.84 125.259ZM212.183 127.091 214.347 128.391 214.003 128.962 211.84 127.663ZM215.092 124.561 219.89 132.11 210.972 131.419Z" transform="matrix(1 0 0 -1 545.5 288.61)"/><path d="M560 255.5C569.113 255.5 576.5 262.887 576.5 272" stroke="#000000" stroke-width="0.666667" stroke-miterlimit="8" fill="none" fill-rule="evenodd"/><text font-family="Cambria Math,Cambria Math_MSFontService,sans-serif" font-weight="400" font-size="24" transform="translate(573.654 254)">𝜃</text><path d="M572.5 218.5C572.5 217.395 573.396 216.5 574.5 216.5 575.605 216.5 576.5 217.395 576.5 218.5 576.5 219.605 575.605 220.5 574.5 220.5 573.396 220.5 572.5 219.605 572.5 218.5Z" stroke="#000000" stroke-width="1.33333" stroke-miterlimit="8" fill-rule="evenodd"/><path d="M767.5 154.5C767.5 153.395 768.396 152.5 769.5 152.5 770.605 152.5 771.5 153.395 771.5 154.5 771.5 155.605 770.605 156.5 769.5 156.5 768.396 156.5 767.5 155.605 767.5 154.5Z" stroke="#000000" stroke-width="1.33333" stroke-miterlimit="8" fill-rule="evenodd"/><text font-family="Cambria Math,Cambria Math_MSFontService,sans-serif" font-weight="400" font-size="24" transform="translate(772.169 149)">𝑃<tspan x="-247.358" y="161">𝑂</tspan><tspan x="-203.083" y="54">𝑞</tspan><tspan x="-113.563" y="57"> </tspan><tspan x="-108.23" y="57">𝑟</tspan></text><path d="M8.83594-15.668 5.89453-13.125 5.27344-13.8281 7.14844-15.457 0-15.457 0-16.5586 7.14844-16.5586 5.27344-18.1875 5.89453-18.8906 8.83594-16.3476Z" transform="translate(666.706 206)"/><text font-family="Cambria Math,Cambria Math_MSFontService,sans-serif" font-weight="400" font-size="24" transform="translate(541.795 247)"> <tspan x="5.33337" y="0">𝑟</tspan></text><path d="M8.83594-15.668 5.89453-13.125 5.27344-13.8281 7.14844-15.457 0-15.457 0-16.5586 7.14844-16.5586 5.27344-18.1875 5.89453-18.8906 8.83594-16.3476Z" transform="translate(549.895 247)"/><text font-family="Cambria Math,Cambria Math_MSFontService,sans-serif" font-weight="400" font-size="24" transform="translate(558.988 247)">′</text></g></svg>